# AST/ASF file generated using VICON BodyLanguage
# -----------------------------------------------
:version 1.10
:name VICON
:units
  mass 1.0
  length 0.45
  angle deg
:documentation
   .ast/.asf automatically generated from VICON data using
   VICON BodyBuilder and BodyLanguage model FoxedUp or BRILLIANT.MOD
:root
   order TX TY TZ RX RY RZ
   axis XYZ
   position 0 0 0  
   orientation 0 0 0 
:bonedata
  begin
     id 1 
     name lhipjoint
     direction 0.661853 -0.702389 0.261917 
     length 2.64193 
     axis 0 0 0  XYZ
  end
  begin
     id 2 
     name lfemur
     direction 0.34202 -0.939693 0  
     length 7.01722  
     axis 0 0 20  XYZ
    dof rx ry rz
    limits (-160.0 20.0)
           (-70.0 70.0)
           (-60.0 70.0)
  end
  begin
     id 3 
     name ltibia
     direction 0.34202 -0.939693 0   
     length 8.25008   
     axis 0 0 20   XYZ
    dof rx
    limits (-10.0 170.0)
  end
  begin
     id 4 
     name lfoot
     direction 0.0709916 -0.195048 0.978221   
     length 2.31941   
     axis -90 7.62852e-016 20   XYZ
    dof rx rz
    limits (-45.0 90.0)
           (-70.0 20.0)
  end
  begin
     id 5 
     name ltoes
     direction 1.53586e-011 -4.22017e-011 1   
     length 1.16486   
     axis -90 7.62852e-016 20   XYZ
    dof rx
    limits (-90.0 20.0)
  end
  begin
     id 6 
     name rhipjoint
     direction -0.638185 -0.721362 0.268992   
     length 2.57244  
     axis 0 0 0  XYZ 
  end
  begin
     id 7 
     name rfemur
     direction -0.34202 -0.939693 0   
     length 7.07017   
     axis 0 0 -20   XYZ
    dof rx ry rz
    limits (-160.0 20.0)
           (-70.0 70.0)
           (-70.0 60.0)
  end
  begin
     id 8 
     name rtibia
     direction -0.34202 -0.939693 0   
     length 8.20386   
     axis 0 0 -20   XYZ
    dof rx
    limits (-10.0 170.0)
 end
 begin
     id 9 
     name rfoot
     direction -0.0822429 -0.225961 0.970658   
     length 2.32215  
     axis -90 -7.62852e-016 -20   XYZ
    dof rx rz
    limits (-45.0 90.0)
           (-20.0 70.0)
  end
  begin
     id 10 
     name rtoes
     direction -1.53597e-011 -4.21689e-011 1   
     length 1.16333   
     axis -90 -7.62852e-016 -20   XYZ
    dof rx
    limits (-90.0 20.0)
  end
  begin
     id 11 
     name lowerback
     direction -0.0131557 0.998589 -0.0514484   
     length 2.14993   
     axis 0 0 0   XYZ
    dof rx ry rz
    limits (-20.0 45.0)
           (-30.0 30.0)
           (-30.0 30.0)
  end
  begin
     id 12 
     name upperback
     direction -0.000776481 0.999993 0.00352685   
     length 2.15301   
     axis 0 0 0   XYZ
    dof rx ry rz
    limits (-20.0 45.0)
           (-30.0 30.0)
           (-30.0 30.0)
  end
  begin
     id 13 
     name thorax
     direction 0.00438186 0.999609 0.0276143   
     length 2.15424   
     axis 0 0 0   XYZ
    dof rx ry rz
    limits (-20.0 45.0)
           (-30.0 30.0)
           (-30.0 30.0)
  end
  begin
     id 14 
     name lowerneck
     direction -0.0488006 0.998094 0.0377807   
     length 1.90481   
     axis 0 0 0   XYZ
    dof rx ry rz
    limits (-20.0 45.0)
           (-30.0 30.0)
           (-30.0 30.0)
  end
  begin
     id 15 
     name upperneck
     direction 0.0443769 0.990702 -0.12861   
     length 1.91305   
     axis 0 0 0   XYZ
    dof rx ry rz
    limits (-20.0 45.0)
           (-30.0 30.0)
           (-30.0 30.0)
  end
  begin
     id 16
     name head
     direction 0.0165599 0.998647 -0.0492982  
     length 1.92369  
     axis 0 0 0   XYZ
    dof rx ry rz
    limits (-20.0 45.0)
           (-30.0 30.0)
           (-30.0 30.0)
  end
  begin
     id 17 
     name lclavicle
     direction 0.911936 0.410197 -0.0105506  
     length 3.52622  
     axis 0 0 0   XYZ
    dof ry rz
    limits (-20.0 10.0)
           (0.0 20.0)
  end
  begin
     id 18 
     name lhumerus
     direction 1 -4.48974e-011 -2.48591e-028   
     length 5.47651   
     axis 180 -30 -90   XYZ
    dof rx ry rz
    limits (-60.0 90.0)
           (-90.0 90.0)
           (-90.0 90.0)
  end
  begin
     id 19
     name lradius
     direction 1 -4.48938e-011 -4.40099e-027   
     length 3.09058   
     axis 180 -30 -90   XYZ
    dof rx
    limits (-10.0 170.0)
  end
  begin
     id 20
     name lwrist
     direction 1 -4.49042e-011 -2.99852e-027   
     length 1.54529   
     axis 1.95339e-015 90 90   XYZ
    dof ry
    limits (-180.0 0.0)
 end
  begin
     id 21 
     name lhand
     direction 1 -4.48815e-011 -5.98193e-027   
     length 0.771611   
     axis 3.82337e-015 90 90   XYZ
    dof rx rz
    limits (-90.0 90.0)
           (-45.0 45.0)
  end
  begin
     id 22 
     name lfingers
     direction 1 -4.49034e-011 -1.1993e-026   
     length 0.622093   
     axis 7.64668e-015 90 90   XYZ
    dof rx
    limits (0.0 90.0)
  end
  begin
     id 23
     name lthumb
     direction 0.707107 -6.34867e-011 0.707107   
     length 0.893204   
     axis -90 45 -1.62303e-014   XYZ
    dof rx rz
    limits (-45.0 45.0)
           (-45.0 45.0)
  end
  begin
     id 24 
     name rclavicle
     direction -0.93442 0.355634 -0.0195692   
     length 3.62463  
     axis 0 0 0   XYZ 
    dof ry rz
    limits (-10.0 20.0)
           (-20.0 0.0)
  end
  begin
     id 25 
     name rhumerus
     direction -1 -4.48957e-011 -1.19147e-027  
     length 5.14182   
     axis 180 30 90   XYZ
    dof rx ry rz
    limits (-90.0 60.0)
           (-90.0 90.0)
           (-90.0 90.0)
  end
  begin
     id 26 
     name rradius
     direction -1 -4.48952e-011 -3.81062e-027   
     length 3.35565   
     axis 180 30 90   XYZ
    dof rx
    limits (-10.0 170.0)
  end
  begin
     id 27 
     name rwrist
     direction -1 -4.48973e-011 -2.99621e-027   
     length 1.67782   
     axis 1.95339e-015 -90 -90   XYZ
    dof ry
    limits (-180.0 0.0)
  end
  begin
     id 28
     name rhand
     direction -1 -4.48895e-011 -5.98727e-027   
     length 0.801042   
     axis 3.82337e-015 -90 -90   XYZ
    dof rx rz
    limits (-90.0 90.0)
           (-45.0 45.0)
  end
  begin
     id 29
     name rfingers
     direction -1 -4.49065e-011 -1.19972e-026   
     length 0.645821   
     axis 7.64668e-015 -90 -90   XYZ
    dof rx
    limits (0.0 90.0)
  end
  begin
     id 30
     name rthumb
     direction -0.707107 -6.34957e-011 0.707107   
     length 0.927273   
     axis -90 -45 1.62303e-014   XYZ
    dof rx rz
    limits (-45.0 45.0)
           (-45.0 45.0)
  end
:hierarchy
  begin
    root lhipjoint rhipjoint lowerback
    lhipjoint lfemur
    lfemur ltibia
    ltibia lfoot
    lfoot ltoes
    rhipjoint rfemur
    rfemur rtibia
    rtibia rfoot
    rfoot rtoes
    lowerback upperback
    upperback thorax
    thorax lowerneck lclavicle rclavicle
    lowerneck upperneck
    upperneck head
    lclavicle lhumerus
    lhumerus lradius
    lradius lwrist
    lwrist lhand lthumb
    lhand lfingers
    rclavicle rhumerus
    rhumerus rradius
    rradius rwrist
    rwrist rhand rthumb
    rhand rfingers
  end

#!OML:ASF E:\Style4\Style4.ASF
:FULLY-SPECIFIED
:DEGREES
1
root -0.327303 18.0761 -1.62981 0.229046 0.420456 0.991565
lowerback 4.2416 1.73848 0.21164
upperback 1.08128 2.32936 0.304517
thorax -1.27034 1.16286 0.0711125
lowerneck -6.64918 -5.212 -6.35131
upperneck 17.13 -6.81135 3.07644
head 6.63524 -3.44885 1.49297
rclavicle 8.44835e-015 -2.06736e-014
rhumerus -49.5927 23.4289 -98.9307
rradius 89.2774
rwrist -20.0544
rhand -25.8189 31.8043
rfingers 7.12502
rthumb 0.720639 1.82582
lclavicle 8.44835e-015 -2.06736e-014
lhumerus -50.5395 -31.4645 103.561
lradius 93.9755
lwrist 11.3581
lhand -14.1084 20.7509
lfingers 7.12502
lthumb 12.0246 50.3855
rfemur -4.89769 3.08164 18.7777
rtibia 20.0149
rfoot -14.3705 -17.2125
rtoes -10.3015
lfemur -3.14709 -6.29094 -19.2317
ltibia 17.7764
lfoot -14.9957 11.4192
ltoes -15.8995
2
root -0.329156 18.0808 -1.62895 0.313503 0.396838 1.02319
lowerback 4.16357 1.75156 0.1589
upperback 1.057 2.34423 0.294306
thorax -1.25335 1.17044 0.0914882
lowerneck -6.67216 -5.22481 -6.3541
upperneck 17.1239 -6.82435 3.06162
head 6.6376 -3.45616 1.48698
rclavicle 5.96106e-014 -1.15295e-014
rhumerus -49.5818 23.3809 -98.914
rradius 89.318
rwrist -20.0475
rhand -25.7986 31.6597
rfingers 7.12502
rthumb 0.740264 1.68128
lclavicle 5.96106e-014 -1.15295e-014
lhumerus -50.5027 -31.5037 103.559
lradius 93.9501
lwrist 11.4017
lhand -14.1065 20.798
lfingers 7.12502
lthumb 12.0264 50.4325
rfemur -5.01375 3.02752 18.7508
rtibia 20.1822
rfoot -14.5857 -16.98
rtoes -9.02483
lfemur -3.1454 -6.25664 -19.253
ltibia 17.6211
lfoot -14.9685 11.4174
ltoes -15.9023
3
root -0.329144 18.0828 -1.62841 0.324019 0.398854 1.05485
lowerback 4.16382 1.75286 0.136042
upperback 1.04309 2.34496 0.287684
thorax -1.2684 1.17083 0.0971449
lowerneck -6.67465 -5.22804 -6.41832
upperneck 17.1343 -6.82741 3.10191
head 6.64535 -3.45852 1.50974
rclavicle 2.59414e-014 9.14409e-015
rhumerus -49.591 23.3478 -98.8913
rradius 89.3039
rwrist -19.9975
rhand -25.7952 31.7369
rfingers 7.12502
rthumb 0.743526 1.75849
lclavicle 2.59414e-014 9.14409e-015
lhumerus -50.5155 -31.5146 103.605
lradius 93.9282
lwrist 11.3891
lhand -14.1287 20.8419
lfingers 7.12502
lthumb 12.005 50.4776
rfemur -4.98232 2.9839 18.7148
rtibia 20.1103
rfoot -14.5278 -16.9465
rtoes -9.26742
lfemur -3.12649 -6.23553 -19.2862
ltibia 17.583
lfoot -14.9697 11.4161
ltoes -15.8346
4
root -0.330519 18.0828 -1.62828 0.399073 0.426506 1.08665
lowerback 4.09647 1.74559 0.0843226
upperback 1.01586 2.33296 0.280502
thorax -1.26045 1.16499 0.121022
lowerneck -6.70078 -5.22407 -6.44832
upperneck 17.172 -6.82192 3.12831
head 6.66374 -3.45549 1.52247
rclavicle -3.50358e-015 -7.95139e-016
rhumerus -49.5996 23.3436 -98.8815
rradius 89.3054
rwrist -20.035
rhand -25.7145 31.8086
rfingers 7.12502
rthumb 0.821453 1.83043
lclavicle -3.50358e-015 -7.95139e-016
lhumerus -50.5663 -31.5179 103.633
lradius 93.9303
lwrist 11.3548
lhand -14.2017 20.7392
lfingers 7.12502
lthumb 11.9346 50.379
rfemur -5.10385 3.00104 18.6748
rtibia 20.0873
rfoot -14.369 -17.1365
rtoes -10.6183
lfemur -3.17897 -6.1915 -19.2981
ltibia 17.518
lfoot -14.879 11.3669
ltoes -15.872
5
root -0.332803 18.0827 -1.62852 0.473385 0.437795 1.15132
lowerback 4.03469 1.74353 0.000887813
upperback 0.985824 2.32637 0.253076
thorax -1.2589 1.16192 0.141367
lowerneck -6.67609 -5.22145 -6.4114
upperneck 17.1396 -6.81804 3.09437
head 6.64628 -3.45419 1.50695
rclavicle 8.05078e-015 -1.47101e-014
rhumerus -49.6073 23.3147 -98.8944
rradius 89.3194
rwrist -20.1105
rhand -25.5883 31.8159
rfingers 7.12502
rthumb 0.943333 1.83829
lclavicle 8.05078e-015 -1.47101e-014
lhumerus -50.5966 -31.5353 103.632
lradius 93.9179
lwrist 11.3364
lhand -14.2382 20.6496
lfingers 7.12502
lthumb 11.8995 50.2915
rfemur -5.17489 3.07094 18.6073
rtibia 20.021
rfoot -14.3065 -17.262
rtoes -11.08
lfemur -3.24023 -6.18575 -19.3483
ltibia 17.4714
lfoot -14.8325 11.383
ltoes -15.9724
